#!OML:ASF E:\emotionWalksFemale\Project 1\Capture day 1\Session 1\Female1.ASF
:FULLY-SPECIFIED
:DEGREES
17
root 8.98575 15.5338 22.7422 178.781 0.677236 179.801
lowerback 8.26068 0.117508 -1.25559
upperback -5.35765 0.174567 0.461546
thorax -10.3851 0.249446 1.16108
lowerneck -9.48905 -3.06411 -6.49675
upperneck 18.1989 -4.0901 8.80185
head 7.45585 -1.32841 3.63313
rclavicle 4.72114e-016 -5.36719e-015
rhumerus -45.3987 15.4469 -96.9176
rradius 39.71
rwrist 21.2688
rhand -11.1416 -55.2229
rfingers 7.12502
rthumb 14.8841 -84.6683
lclavicle 4.72114e-016 -5.36719e-015
lhumerus -45.6229 1.31097 87.1735
lradius 37.4856
lwrist -12.9693
lhand -0.98637 -38.1568
lfingers 7.12502
lthumb 24.6453 -9.72369
rfemur 0.301089 19.7415 26.6227
rtibia 15.5363
rfoot -16.1476 -30.6167
rtoes 9.87977
lfemur -3.88069 -22.8591 -24.9543
ltibia 20.4678
lfoot -19.8802 21.9046
ltoes -24.3609
18
root 8.98447 15.5374 22.7414 178.857 0.784166 179.836
lowerback 8.1585 0.193926 -1.19593
upperback -5.37964 0.285611 0.42081
thorax -10.351 0.298154 1.06472
lowerneck -9.43726 -3.1218 -6.36131
upperneck 18.1333 -4.17082 8.67053
head 7.42657 -1.37278 3.55736
rclavicle -2.31087e-015 -1.2921e-015
rhumerus -45.3923 15.1406 -96.8304
rradius 39.7755
rwrist 21.5486
rhand -11.0982 -54.9584
rfingers 7.12502
rthumb 14.9259 -84.4007
lclavicle -2.31087e-015 -1.2921e-015
lhumerus -45.5844 1.21292 87.0906
lradius 37.2726
lwrist -13.0916
lhand -0.624811 -38.2886
lfingers 7.12502
lthumb 24.9918 -9.90322
rfemur 0.235282 19.7281 26.6158
rtibia 15.4722
rfoot -16.0793 -30.5074
rtoes 10.0874
lfemur -3.96176 -22.8313 -24.8914
ltibia 20.4955
lfoot -19.9886 21.8584
ltoes -23.6639
19
root 8.98183 15.5391 22.7402 178.913 0.81371 179.904
lowerback 8.08828 0.218447 -1.0928
upperback -5.39285 0.333454 0.408351
thorax -10.3241 0.314139 0.985211
lowerneck -9.37236 -3.14695 -6.27942
upperneck 17.9978 -4.20799 8.58453
head 7.37037 -1.39984 3.50878
rclavicle 8.19987e-016 -1.2921e-015
rhumerus -45.3712 14.9343 -96.7446
rradius 39.7738
rwrist 21.8444
rhand -11.6579 -54.5706
rfingers 7.12502
rthumb 14.3867 -84.052
lclavicle 8.19987e-016 -1.2921e-015
lhumerus -45.5662 1.33704 86.9974
lradius 37.1183
lwrist -13.3198
lhand -0.50886 -38.219
lfingers 7.12502
lthumb 25.1029 -9.84914
rfemur 0.192919 19.6732 26.6482
rtibia 15.4127
rfoot -16.0883 -30.4202
rtoes 10.1224
lfemur -4.03316 -22.8979 -24.8063
ltibia 20.5106
lfoot -19.8808 22.0773
ltoes -25.1135
20
root 8.98027 15.5383 22.7401 178.929 0.809689 179.952
lowerback 8.10385 0.232294 -1.02777
upperback -5.39948 0.358649 0.388639
thorax -10.3407 0.321064 0.92316
lowerneck -9.27239 -3.16166 -6.22354
upperneck 17.7651 -4.23832 8.55785
head 7.2775 -1.42448 3.48361
rclavicle 1.6027e-015 -3.47873e-016
rhumerus -45.3976 14.9014 -96.8084
rradius 39.7979
rwrist 21.7634
rhand -11.5798 -54.8486
rfingers 7.12502
rthumb 14.4619 -84.3247
lclavicle 1.6027e-015 -3.47873e-016
lhumerus -45.5907 1.36877 86.9313
lradius 37.0215
lwrist -13.5566
lhand -0.968295 -38.278
lfingers 7.12502
lthumb 24.6626 -9.84722
rfemur 0.173511 19.5979 26.6777
rtibia 15.3881
rfoot -16.059 -30.409
rtoes 9.81741
lfemur -4.07292 -22.9349 -24.7502
ltibia 20.5221
lfoot -19.6548 22.3065
ltoes -26.517
21
root 8.98019 15.5405 22.7418 179.071 0.923626 179.969
lowerback 8.01235 0.293908 -1.01628
upperback -5.41335 0.442913 0.352543
thorax -10.303 0.360179 0.863937
lowerneck -9.24206 -2.32349 -6.25447
upperneck 17.3783 -4.4997 8.73617
head 7.15537 -2.1291 3.44583
rclavicle -2.62768e-015 2.78299e-015
rhumerus -45.2879 14.9593 -96.9606
rradius 39.6582
rwrist 21.4942
rhand -10.7178 -55.2994
rfingers 7.12502
rthumb 15.2924 -84.714
lclavicle -2.62768e-015 2.78299e-015
lhumerus -45.5595 1.32254 86.8499
lradius 36.8508
lwrist -13.7992
lhand -1.67667 -38.552
lfingers 7.12502
lthumb 23.9835 -10.0302
rfemur -0.0298654 19.6356 26.6209
rtibia 15.4116
rfoot -15.9787 -30.3475
rtoes 9.50973
lfemur -4.24476 -22.8768 -24.6662
ltibia 20.5195
lfoot -19.6425 22.2851
ltoes -25.7199
22
root 8.97519 15.544 22.7493 179.143 1.46264 179.962
lowerback 8.10179 0.477475 -0.986732
upperback -5.42209 0.691056 0.339369
thorax -10.3719 0.477096 0.790719
lowerneck -9.29939 -2.32777 -6.25795
upperneck 17.2539 -4.4829 8.76392
head 7.12503 -2.11261 3.45602
rclavicle -2.08724e-015 -1.49089e-016
rhumerus -45.0711 15.1711 -97.1169
rradius 39.308
rwrist 21.1276
rhand -10.3275 -55.4541
rfingers 7.12502
rthumb 15.6682 -84.8397
lclavicle -2.08724e-015 -1.49089e-016
lhumerus -45.5019 1.36153 86.8075
lradius 36.6797
lwrist -13.9261
lhand -2.07884 -38.5881
lfingers 7.12502
lthumb 23.5978 -10.016
rfemur -0.286673 19.5601 26.4559
rtibia 15.4744
rfoot -15.694 -29.8221
rtoes 8.32867
lfemur -4.29545 -22.6865 -24.6906
ltibia 20.5034
lfoot -19.8542 22.4664
ltoes -24.0171
23
root 8.97154 15.545 22.7472 179.117 1.73181 179.917
lowerback 8.12551 0.563403 -0.995516
upperback -5.39457 0.801484 0.324502
thorax -10.358 0.529003 0.761088
lowerneck -9.28386 -2.32092 -6.27475
upperneck 17.1195 -4.44827 8.7654
head 7.07664 -2.0933 3.46192
rclavicle 6.44808e-015 6.4605e-016
rhumerus -44.9975 15.3628 -97.257
rradius 39.0651
rwrist 20.8887
rhand -10.3083 -55.5164
rfingers 7.12502
rthumb 15.6867 -84.9005
lclavicle 6.44808e-015 6.4605e-016
lhumerus -45.4959 1.42713 86.7763
lradius 36.5905
lwrist -13.9715
lhand -1.94822 -38.3902
lfingers 7.12502
lthumb 23.7231 -9.83433
rfemur -0.320951 19.5375 26.3566
rtibia 15.5039
rfoot -15.5834 -29.635
rtoes 7.5039
lfemur -4.2001 -22.5989 -24.8059
ltibia 20.4949
lfoot -19.9318 22.7609
ltoes -24.2277
24
root 8.97063 15.5417 22.7414 179.039 1.60461 179.894
lowerback 8.11716 0.530927 -0.989227
upperback -5.33591 0.751037 0.290093
thorax -10.2859 0.500398 0.729997
lowerneck -9.21168 -2.33654 -6.22234
upperneck 16.92 -4.44256 8.71801
head 6.99737 -2.08839 3.43719
rclavicle -5.03174e-016 7.95139e-016
rhumerus -45.0421 15.1816 -97.2474
rradius 39.0311
rwrist 21.1663
rhand -10.1899 -55.1396
rfingers 7.12502
rthumb 15.8007 -84.5147
lclavicle -5.03174e-016 7.95139e-016
lhumerus -45.5709 1.48371 86.6893
lradius 36.641
lwrist -14.078
lhand -1.59397 -38.3159
lfingers 7.12502
lthumb 24.0628 -9.80453
rfemur -0.186222 19.5376 26.3873
rtibia 15.5237
rfoot -15.6883 -29.7315
rtoes 7.5796
lfemur -4.09437 -22.6829 -24.8814
ltibia 20.5135
lfoot -19.9752 22.7425
ltoes -24.6447
25
root 8.97653 15.5405 22.7422 179.099 0.861206 179.931
lowerback 8.09856 0.291836 -1.00162
upperback -5.32559 0.426422 0.280664
thorax -10.2558 0.344071 0.781895
lowerneck -9.17935 -2.3517 -6.23681
upperneck 16.7322 -4.44269 8.7633
head 6.93282 -2.08247 3.45352
rclavicle -4.41364e-015 -1.2424e-015
rhumerus -45.1045 14.8164 -97.1472
rradius 39.1108
rwrist 21.582
rhand -10.076 -54.9334
rfingers 7.12502
rthumb 15.9105 -84.2998
lclavicle -4.41364e-015 -1.2424e-015
lhumerus -45.6516 1.54358 86.6063
lradius 36.7285
lwrist -14.2025
lhand -1.48267 -38.4082
lfingers 7.12502
lthumb 24.1695 -9.91098
rfemur -0.0883282 19.5889 26.5518
rtibia 15.4846
rfoot -16.0738 -30.3352
rtoes 8.7591
lfemur -4.2975 -22.7966 -24.7065
ltibia 20.5583
lfoot -19.889 22.0317
ltoes -24.2519
